HIERARCHY
ROOT Hips
{
 OFFSET 0.000000 0.000000 0.000000
 CHANNELS 6 Xposition Yposition Zposition Yrotation Xrotation Zrotation
 JOINT Chest
 {
  OFFSET 0.000000 9.585900 0.002600
  CHANNELS 3 Yrotation Xrotation Zrotation
  JOINT Chest2
  {
   OFFSET 0.000000 9.601200 -0.005300
   CHANNELS 3 Yrotation Xrotation Zrotation
   JOINT Chest3
   {
    OFFSET 0.000000 9.561800 0.000000
    CHANNELS 3 Yrotation Xrotation Zrotation
    JOINT Chest4
    {
     OFFSET 0.000000 9.552100 0.000000
     CHANNELS 3 Yrotation Xrotation Zrotation
     JOINT Neck
     {
      OFFSET 0.000000 14.453000 0.000000
      CHANNELS 3 Yrotation Xrotation Zrotation
      JOINT Head
      {
       OFFSET 0.000000 8.936500 -0.011300
       CHANNELS 3 Yrotation Xrotation Zrotation
       End Site
       {
        OFFSET 0.000000 17.073600 -0.006000
       }
      }
     }
     JOINT RightCollar
     {
      OFFSET -2.921100 9.558500 0.000000
      CHANNELS 3 Yrotation Xrotation Zrotation
      JOINT RightShoulder
      {
       OFFSET -13.519700 0.000000 0.000000
       CHANNELS 3 Yrotation Xrotation Zrotation
       JOINT RightElbow
       {
        OFFSET 0.000000 -29.696600 0.000000
        CHANNELS 3 Yrotation Xrotation Zrotation
        JOINT RightWrist
        {
         OFFSET 0.000000 -24.004700 0.000000
         CHANNELS 3 Yrotation Xrotation Zrotation
         End Site
         {
          OFFSET 0.000000 -17.728500 0.000000
         }
        }
       }
      }
     }
     JOINT LeftCollar
     {
      OFFSET 2.921100 9.558500 0.000000
      CHANNELS 3 Yrotation Xrotation Zrotation
      JOINT LeftShoulder
      {
       OFFSET 13.519700 0.000000 0.000000
       CHANNELS 3 Yrotation Xrotation Zrotation
       JOINT LeftElbow
       {
        OFFSET 0.000000 -29.696600 0.000000
        CHANNELS 3 Yrotation Xrotation Zrotation
        JOINT LeftWrist
        {
         OFFSET 0.000000 -24.004700 0.000000
         CHANNELS 3 Yrotation Xrotation Zrotation
         End Site
         {
          OFFSET 0.000000 -17.728500 0.000000
         }
        }
       }
      }
     }
    }
   }
  }
 }
 JOINT RightHip
 {
  OFFSET -7.771700 -0.012900 -0.001300
  CHANNELS 3 Yrotation Xrotation Zrotation
  JOINT RightKnee
  {
   OFFSET 0.000000 -40.869800 0.001200
   CHANNELS 3 Yrotation Xrotation Zrotation
   JOINT RightAnkle
   {
    OFFSET 0.000000 -39.717900 0.002100
    CHANNELS 3 Yrotation Xrotation Zrotation
    JOINT RightToe
    {
     OFFSET 0.000000 -4.965400 11.033500
     CHANNELS 3 Yrotation Xrotation Zrotation
     End Site
     {
      OFFSET 0.000000 -1.423100 5.872300
     }
    }
   }
  }
 }
 JOINT LeftHip
 {
  OFFSET 7.771700 -0.012900 -0.001300
  CHANNELS 3 Yrotation Xrotation Zrotation
  JOINT LeftKnee
  {
   OFFSET 0.000000 -40.869800 0.001200
   CHANNELS 3 Yrotation Xrotation Zrotation
   JOINT LeftAnkle
   {
    OFFSET 0.000000 -39.717900 0.002100
    CHANNELS 3 Yrotation Xrotation Zrotation
    JOINT LeftToe
    {
     OFFSET 0.000000 -4.965400 11.033500
     CHANNELS 3 Yrotation Xrotation Zrotation
     End Site
     {
      OFFSET 0.000000 -1.423100 5.872300
     }
    }
   }
  }
 }
}
MOTION
Frames: 16
Frame Time: 0.008333
0.000000 85.388000 0.000000 0.000000 -5.767877 0.000000 0.000000 11.653817 0.000000 0.000000 -5.885947 0.000000 0.000000 -0.000000 0.000000 0.000000 -0.000000 0.000000 0.000000 12.528835 0.000000 0.000000 0.711642 0.000000 0.000000 -0.000000 0.000000 0.000000 0.000000 -90.000000 0.000000 -2.309062 0.000000 0.000000 2.309062 0.000000 0.000000 -0.000000 0.000000 0.000000 -0.000000 90.000000 0.000000 -2.309062 0.000000 0.000000 2.309062 0.000000 0.000000 8.520406 0.000000 0.000000 1.905762 0.000000 -0.000000 -4.658285 0.000000 0.000000 -0.000000 0.000000 0.000000 8.520406 0.000000 0.000000 1.905762 0.000000 -0.000000 -4.658285 0.000000 0.000000 -0.000000 0.000000
-93.808012 57.759485 92.421627 176.217080 -31.938965 -0.869778 1.031480 21.247537 3.648836 0.060582 2.858969 0.500399 0.103267 4.636583 0.803565 0.780504 18.037381 3.249662 -2.687135 18.522473 -7.587050 -2.496986 -1.323865 -13.053720 7.882077 -1.645521 -4.146645 11.130697 -16.295533 -7.072531 -17.731230 -88.612295 47.796489 12.244201 -14.188400 -51.553005 -9.735094 -5.042539 -2.160106 0.085318 -5.913779 -9.521961 -1.022940 -82.026155 -21.707201 -0.481384 -12.386761 32.213020 12.545975 -42.913487 -9.691975 -1.157062 69.554277 1.164961 8.628034 18.738660 7.441033 -0.128528 -13.643659 1.209246 -7.549419 -41.472109 2.612758 28.838233 67.218725 27.003970 -15.692432 6.912202 -1.553984 -0.012863 0.215886 0.014348
-93.807002 57.757685 92.425028 176.223942 -31.946625 -0.879885 1.025603 21.245891 3.648742 0.055666 2.854019 0.496571 0.093654 4.618560 0.790244 0.799173 18.065122 3.267689 -2.759762 18.488516 -7.570526 -2.602841 -1.364855 -12.991457 7.829863 -1.632989 -4.193992 11.205633 -16.389967 -7.105396 -18.675550 -88.527097 48.724677 12.189975 -14.246553 -51.609977 -9.729645 -5.045997 -2.171480 0.066762 -5.963836 -9.514440 -0.465728 -81.989056 -22.254019 -0.477838 -12.365354 32.262544 12.552505 -42.905826 -9.687685 -1.166587 69.551715 1.163520 8.622261 18.740574 7.444822 -0.128004 -13.644039 1.209819 -7.563417 -41.469272 2.628772 28.837348 67.222007 27.000156 -15.711541 6.918356 -1.565748 -0.007598 0.213339 0.020214
-93.806290 57.755310 92.429352 176.235990 -31.956375 -0.891317 1.017070 21.252686 3.652189 0.052846 2.843242 0.489222 0.093000 4.624473 0.794156 0.783731 18.053710 3.252827 -2.819145 18.473552 -7.543868 -2.714684 -1.405957 -12.935120 7.822715 -1.608491 -4.194595 11.264297 -16.488212 -7.186263 -20.621917 -88.406221 50.646462 12.120007 -14.285402 -51.639576 -9.723291 -5.049875 -2.202188 0.048979 -6.008357 -9.472918 0.146259 -81.941876 -22.850095 -0.470622 -12.346361 32.321422 12.540880 -42.897785 -9.674988 -1.172690 69.549430 1.156417 8.615984 18.742870 7.443479 -0.128879 -13.644417 1.214032 -7.578318 -41.460887 2.637950 28.835587 67.222738 26.996951 -15.697494 6.904935 -1.612790 -0.011585 0.230047 0.059670
-93.805489 57.752048 92.434944 176.251372 -31.966041 -0.905899 0.999629 21.248604 3.648113 0.051084 2.842791 0.488520 0.095785 4.631513 0.798142 0.764818 18.045530 3.242755 -2.857498 18.466239 -7.527142 -2.857600 -1.453889 -12.873952 7.813095 -1.581810 -4.200578 11.331665 -16.610160 -7.281651 -22.676469 -88.263910 52.677404 12.019948 -14.317310 -51.668909 -9.703881 -5.039996 -2.213754 0.010884 -6.085491 -9.451580 0.732900 -81.877385 -23.402190 -0.443622 -12.332183 32.371749 12.516597 -42.892022 -9.644188 -1.207428 69.546381 1.102459 8.620145 18.744005 7.445386 -0.125636 -13.644895 1.225134 -7.595242 -41.456298 2.649464 28.824504 67.223599 26.985510 -15.698935 6.908013 -1.631358 -0.002800 0.233136 0.065359
-93.805987 57.746176 92.444341 176.284203 -31.956497 -0.924282 0.965327 21.227322 3.642632 0.049430 2.843040 0.487947 0.093001 4.631981 0.796954 0.752985 18.047015 3.236645 -2.856352 18.470181 -7.520270 -3.054807 -1.514536 -12.798781 7.790875 -1.558855 -4.207160 11.407516 -16.753633 -7.393112 -24.678250 -88.095380 54.660954 11.889975 -14.354055 -51.699205 -9.699850 -5.040596 -2.239920 -0.025887 -6.176091 -9.411430 1.441384 -81.793017 -24.061050 -0.406495 -12.301827 32.408907 12.488624 -42.905491 -9.635914 -1.216951 69.544360 1.083173 8.613703 18.747979 7.447377 -0.126176 -13.645156 1.229902 -7.629245 -41.482769 2.656791 28.819651 67.229062 26.980261 -15.673092 6.919364 -1.703449 -0.020077 0.230627 0.120563
-93.800765 57.741084 92.452642 176.298583 -31.965610 -0.968011 0.956813 21.227487 3.672822 0.037526 2.834788 0.483283 0.088670 4.635259 0.795175 0.757312 18.055055 3.234272 -2.997744 18.426160 -7.502506 -3.120686 -1.554229 -12.790639 7.794091 -1.547690 -4.204472 11.461089 -16.904410 -7.528408 -27.067704 -87.883131 57.039715 11.760307 -14.388450 -51.727230 -9.694202 -5.043111 -2.267537 -0.071121 -6.287427 -9.365132 2.276838 -81.680440 -24.831840 -0.357043 -12.254283 32.430332 12.440588 -42.907092 -9.570847 -1.221789 69.537872 1.069905 8.606242 18.755056 7.450782 -0.132156 -13.649828 1.232170 -7.674819 -41.478242 2.708277 28.828890 67.234908 26.987862 -15.631471 6.916221 -1.806770 -0.055040 0.226860 0.201575
-93.801733 57.734268 92.462552 176.310789 -31.967118 -0.976237 0.925938 21.210703 3.661081 0.045098 2.846872 0.486514 0.093206 4.639991 0.795334 0.716325 18.057142 3.221669 -3.077512 18.396033 -7.498606 -3.238768 -1.603930 -12.773381 7.819780 -1.541405 -4.204401 11.518096 -17.071221 -7.679822 -29.788731 -87.603568 59.774364 11.670719 -14.409760 -51.765716 -9.666423 -5.054333 -2.300162 -0.124142 -6.414447 -9.314450 3.167208 -81.542477 -25.631908 -0.299655 -12.199791 32.435076 12.428687 -42.911823 -9.551514 -1.225188 69.534158 1.044537 8.597363 18.758953 7.465743 -0.131242 -13.648973 1.234520 -7.687792 -41.480016 2.713193 28.835965 67.227762 26.993291 -15.592419 6.876489 -1.927899 -0.020110 0.228186 0.220720
-93.803469 57.728362 92.470343 176.328331 -31.988930 -0.984201 0.905701 21.228802 3.657477 0.038218 2.844494 0.487792 0.096941 4.644038 0.792064 0.703961 18.061504 3.220249 -3.165625 18.371995 -7.503708 -3.386306 -1.653999 -12.761576 7.802917 -1.535526 -4.204667 11.595645 -17.257947 -7.845751 -31.397047 -87.332905 61.385237 11.550435 -14.435929 -51.786145 -9.687474 -5.081043 -2.356338 -0.162471 -6.551256 -9.238192 3.983215 -81.398775 -26.326399 -0.249195 -12.147713 32.437757 12.412856 -42.894132 -9.539151 -1.196351 69.532390 1.059603 8.584144 18.761263 7.476800 -0.129127 -13.649581 1.233816 -7.699010 -41.457817 2.708501 28.833122 67.218062 26.993278 -15.551338 6.824987 -2.066613 -0.020952 0.251534 0.283715
-93.805854 57.720606 92.480421 176.338752 -31.999292 -0.987750 0.891947 21.235751 3.654660 0.036070 2.845028 0.488494 0.089246 4.644944 0.791568 0.690509 18.065515 3.219326 -3.253076 18.351631 -7.520582 -3.539482 -1.697852 -12.764701 7.796326 -1.532220 -4.205015 11.677058 -17.453382 -8.027231 -32.351952 -87.080037 62.349078 11.441617 -14.453784 -51.822584 -9.678412 -5.089805 -2.382048 -0.221034 -6.725813 -9.199520 4.594150 -81.273656 -26.784570 -0.215920 -12.098201 32.452264 12.408520 -42.889685 -9.539138 -1.202260 69.530397 1.052035 8.583115 18.766891 7.479396 -0.128853 -13.652626 1.235675 -7.704246 -41.449061 2.704541 28.832672 67.209414 26.996267 -15.513795 6.770052 -2.195777 -0.020719 0.271240 0.326215
-93.809284 57.711556 92.491906 176.349847 -32.002978 -0.987925 0.866398 21.231089 3.648231 0.041349 2.850578 0.486044 0.079766 4.643604 0.793730 0.672044 18.073115 3.216667 -3.338384 18.334678 -7.548739 -3.695846 -1.735900 -12.782436 7.801708 -1.530184 -4.206974 11.764121 -17.656871 -8.219414 -32.679243 -86.850442 62.694228 11.369887 -14.463670 -51.893468 -9.651213 -5.094312 -2.400448 -0.289255 -6.924764 -9.174225 4.901094 -81.181312 -26.905433 -0.192596 -12.047549 32.482775 12.407902 -42.893141 -9.546630 -1.193520 69.529015 1.056008 8.582592 18.776169 7.486690 -0.130662 -13.660834 1.235997 -7.707528 -41.447821 2.694384 28.818757 67.197978 26.987311 -15.473590 6.720035 -2.313253 -0.020927 0.285588 0.349933
-93.812395 57.701451 92.504620 176.359264 -32.000826 -0.990805 0.846920 21.224521 3.647072 0.039314 2.852101 0.486001 0.076558 4.646178 0.793571 0.670508 18.076174 3.211450 -3.441814 18.321846 -7.576081 -3.853737 -1.770667 -12.815422 7.769622 -1.539912 -4.185627 11.886164 -17.856858 -8.427961 -32.226724 -86.651020 62.250613 11.316481 -14.476152 -51.978617 -9.656082 -5.102051 -2.424885 -0.346471 -7.138601 -9.135487 4.922450 -81.123281 -26.711664 -0.167851 -11.992525 32.532745 12.403905 -42.903416 -9.548238 -1.188214 69.525775 1.054546 8.580393 18.784817 7.494123 -0.126042 -13.680537 1.234692 -7.718296 -41.452945 2.693212 28.804723 67.187719 26.977358 -15.436196 6.664333 -2.432379 -0.020355 0.300224 0.368074
-93.816266 57.690958 92.517445 176.374250 -31.998855 -0.992403 0.803199 21.213267 3.635651 0.048642 2.858488 0.483166 0.073735 4.649141 0.793471 0.673409 18.080105 3.207594 -3.546926 18.313607 -7.610158 -4.012722 -1.803592 -12.863380 7.759313 -1.549601 -4.178437 11.993595 -18.066865 -8.621329 -31.325109 -86.471419 61.352929 11.262878 -14.485086 -52.067030 -9.670922 -5.097877 -2.456476 -0.390147 -7.381400 -9.088993 4.774844 -81.089602 -26.334832 -0.140051 -11.934374 32.613033 12.397809 -42.913738 -9.554290 -1.186375 69.524285 1.046249 8.584565 18.794988 7.506443 -0.129177 -13.691264 1.233354 -7.737525 -41.455909 2.688169 28.710872 67.180517 26.893889 -15.374430 6.613320 -2.562363 -0.015448 0.312036 0.385275
-93.818650 57.682369 92.527038 176.387981 -32.020607 -1.000313 0.778257 21.233206 3.633414 0.049802 2.859089 0.485389 0.070512 4.653460 0.794282 0.660661 18.087542 3.207501 -3.646322 18.302774 -7.659884 -4.171707 -1.833581 -12.923711 7.771698 -1.561650 -4.187810 12.098587 -18.293177 -8.805968 -30.822377 -86.238462 60.824038 11.246949 -14.490031 -52.115925 -9.660357 -5.098109 -2.486118 -0.440827 -7.644346 -9.052907 4.572183 -81.061844 -25.897759 -0.111695 -11.878490 32.736015 12.381846 -42.899897 -9.543037 -1.202403 69.523447 1.024626 8.586625 18.805924 7.510540 -0.127520 -13.698085 1.234383 -7.756435 -41.433033 2.690870 28.653344 67.180733 26.839329 -15.323601 6.538093 -2.673763 -0.018580 0.329624 0.390586
-93.820937 57.672565 92.538328 176.393329 -32.029609 -1.003706 0.760473 21.241381 3.630049 0.045446 2.860961 0.486175 0.051495 4.664177 0.797798 0.637697 18.103240 3.206981 -3.719277 18.280199 -7.729058 -4.332057 -1.859451 -12.990805 7.813341 -1.589332 -4.211051 12.218853 -18.532753 -8.985666 -30.149191 -85.998907 60.115790 11.185237 -14.493943 -52.141481 -9.617326 -5.108739 -2.530275 -0.493332 -7.932997 -9.008509 4.427917 -81.019687 -25.513667 -0.083012 -11.826133 32.893432 12.376611 -42.899740 -9.539354 -1.195265 69.521804 1.029111 8.581540 18.815386 7.512492 -0.127450 -13.713819 1.235121 -7.766097 -41.422840 2.694007 28.599804 67.180677 26.792432 -15.285697 6.453373 -2.774275 -0.021643 0.348907 0.384190
-93.822795 57.662460 92.549983 176.392278 -32.034167 -1.004968 0.752324 21.244121 3.627874 0.031589 2.866187 0.488153 0.066718 4.664565 0.795938 0.626616 18.113310 3.204230 -3.818899 18.271213 -7.783410 -4.496573 -1.881688 -13.058444 7.801718 -1.623514 -4.209169 12.371369 -18.774474 -9.159546 -28.299396 -85.866599 58.284963 10.941423 -14.486017 -52.215661 -9.605356 -5.111457 -2.544736 -0.549744 -8.235979 -8.970785 4.420670 -80.950627 -25.268786 -0.054472 -11.773378 33.071490 12.378978 -42.904850 -9.529744 -1.174589 69.518854 1.037641 8.569934 18.826364 7.522999 -0.131542 -13.739665 1.237019 -7.773777 -41.416754 2.701333 28.576738 67.179657 26.770390 -15.257213 6.359014 -2.858506 -0.033590 0.409517 0.415286
